G04 ================== begin FILE IDENTIFICATION RECORD ==================*
G04 Layout Name:  P1.brd*
G04 Film Name:    SSTOP*
G04 File Format:  Gerber RS274X*
G04 File Origin:  Cadence Allegro 17.2-S025*
G04 Origin Date:  Thu Dec 12 12:57:15 2024*
G04 *
G04 Layer:  USER PART NUMBER/SILKSCREEN_TOP*
G04 Layer:  TOLERANCE/SILKSCREEN_TOP*
G04 Layer:  REF DES/SILKSCREEN_TOP*
G04 Layer:  PACKAGE GEOMETRY/SILKSCREEN_TOP*
G04 Layer:  DEVICE TYPE/SILKSCREEN_TOP*
G04 Layer:  COMPONENT VALUE/SILKSCREEN_TOP*
G04 Layer:  BOARD GEOMETRY/SILKSCREEN_TOP*
G04 *
G04 Offset:    (0.00 0.00)*
G04 Mirror:    No*
G04 Mode:      Positive*
G04 Rotation:  0*
G04 FullContactRelief:  No*
G04 UndefLineWidth:     0.00*
G04 ================== end FILE IDENTIFICATION RECORD ====================*
%FSLAX25Y25*MOIN*%
%IR0*IPPOS*OFA0.00000B0.00000*MIA0B0*SFA1.00000B1.00000*%
%ADD10C,.005*%
%ADD11C,.006*%
G75*
%LPD*%
G75*
G54D10*
G01X19300Y149800D02*
X13700D01*
Y146200D01*
G01Y141500D02*
Y137800D01*
X19300D01*
G01Y145400D02*
Y142300D01*
G01X42700Y69300D02*
Y63700D01*
X46400D01*
G01X51100D02*
X54700D01*
Y69300D01*
G01X47100D02*
X50200D01*
G01X51300Y96300D02*
Y92700D01*
X45700D01*
G01Y100300D02*
Y97100D01*
G01Y104700D02*
X51300D01*
Y101100D01*
G01X33700Y126200D02*
Y129800D01*
X39300D01*
G01Y125400D02*
Y122400D01*
G01Y117800D02*
X33700D01*
Y121500D01*
G01X82700Y36800D02*
Y31200D01*
X86300D01*
G01X87100Y36800D02*
X90100D01*
G01X77300Y65700D02*
Y71300D01*
X73600D01*
G01X69000D02*
X65300D01*
Y65700D01*
G01X69800D02*
X72900D01*
G01X87800Y70700D02*
Y76300D01*
X91400D01*
G01X76200Y93700D02*
Y97300D01*
X81800D01*
G01Y93000D02*
Y90000D01*
G01Y85300D02*
X76200D01*
Y88900D01*
G01X77200Y109300D02*
Y103700D01*
X73500D01*
Y103900D01*
G01X72800Y109300D02*
X69600D01*
G01X65200D02*
Y103700D01*
X68900D01*
G01X66200Y124000D02*
Y120300D01*
X71800D01*
G01Y124800D02*
Y127900D01*
G01Y132300D02*
X66200D01*
Y128600D01*
G01X101200Y24000D02*
Y20300D01*
X106800D01*
G01Y27900D02*
Y25000D01*
G01X101200Y28700D02*
Y32300D01*
X106700D01*
G01X91000Y31200D02*
X94700D01*
Y36800D01*
G01X92200Y70700D02*
X95300D01*
G01X99800Y70800D02*
Y76300D01*
X96200D01*
G01X134300Y37800D02*
X128700D01*
Y41400D01*
G01Y46200D02*
Y49800D01*
X134300D01*
G01Y45400D02*
Y42500D01*
G54D11*
G01X16250Y54700D02*
Y38700D01*
G01D02*
X8750D01*
G01D02*
Y54700D01*
G01X15300Y33750D02*
X31300D01*
G01Y26250D02*
X15300D01*
G01D02*
Y33750D01*
G01X8750Y54700D02*
X16250D01*
G01X27200Y61250D02*
X11200D01*
G01D02*
Y68750D01*
G01D02*
X27200D01*
G01D02*
Y61250D01*
G01X32200Y91250D02*
X16200D01*
G01D02*
Y98750D01*
G01D02*
X32200D01*
G01X34700Y78750D02*
X18700D01*
G01D02*
Y86250D01*
G01D02*
X34700D01*
G01X43750Y27800D02*
Y43800D01*
G01X51250D02*
Y27800D01*
G01D02*
X43750D01*
G01X56250D02*
Y43800D01*
G01X63750Y27800D02*
X56250D01*
G01X61800Y14850D02*
X46000D01*
G01D02*
Y19150D01*
G01D02*
X45150Y20000D01*
G01D02*
X46000Y20850D01*
G01D02*
Y25150D01*
G01D02*
X61800D01*
G01X31300Y33750D02*
Y26250D01*
G01X43750Y43800D02*
X51250D01*
G01X56250D02*
X63750D01*
G01X38750Y62200D02*
Y46200D01*
G01D02*
X31250D01*
G01D02*
Y62200D01*
G01D02*
X38750D01*
G01X32200Y98750D02*
Y91250D01*
G01X34700Y86250D02*
Y78750D01*
G01X47200Y143750D02*
X31200D01*
G01D02*
Y151250D01*
G01D02*
X47200D01*
G01D02*
Y143750D01*
G01X66250Y136200D02*
X58750D01*
G01D02*
Y152200D01*
G01D02*
X66250D01*
G01X63750Y43800D02*
Y27800D01*
G01X68750D02*
Y43800D01*
G01X76250D02*
Y27800D01*
G01D02*
X68750D01*
G01X61800Y25150D02*
Y14850D01*
G01X68750Y43800D02*
X76250D01*
G01X93750Y46200D02*
X86250D01*
G01D02*
Y62200D01*
G01D02*
X93750D01*
G01X66250Y152200D02*
Y136200D01*
G01X86250Y152200D02*
Y136200D01*
G01D02*
X78750D01*
G01D02*
Y152200D01*
G01D02*
X86250D01*
G01X116250Y64700D02*
Y48700D01*
G01D02*
X108750D01*
G01D02*
Y64700D01*
G01D02*
X116250D01*
G01X93750Y62200D02*
Y46200D01*
G01X92800Y96250D02*
X108800D01*
G01D02*
Y88750D01*
G01D02*
X92800D01*
G01D02*
Y96250D01*
G01X121250Y71200D02*
X113750D01*
G01D02*
Y87200D01*
G01D02*
X121250D01*
G01X132200Y116250D02*
X116200D01*
G01D02*
Y123750D01*
G01D02*
X132200D01*
G01X109700Y116250D02*
X93700D01*
G01D02*
Y123750D01*
G01D02*
X109700D01*
G01D02*
Y116250D01*
G01X92800Y108750D02*
X108800D01*
G01D02*
Y101250D01*
G01D02*
X92800D01*
G01D02*
Y108750D01*
G01X96250Y135300D02*
Y151300D01*
G01D02*
X103750D01*
G01D02*
Y135300D01*
G01D02*
X96250D01*
G01X118750Y152200D02*
Y136200D01*
G01D02*
X111250D01*
G01D02*
Y152200D01*
G01D02*
X118750D01*
G01X123750Y92800D02*
Y108800D01*
G01X131250D02*
Y92800D01*
G01D02*
X123750D01*
G01X121250Y87200D02*
Y71200D01*
G01X132200Y123750D02*
Y116250D01*
G01X123750Y108800D02*
X131250D01*
G01X122350Y135700D02*
Y151500D01*
G01D02*
X126650D01*
G01D02*
X127500Y152350D01*
G01D02*
X128350Y151500D01*
G01D02*
X132650D01*
G01D02*
Y135700D01*
G01D02*
X122350D01*
M02*
