G04 ================== begin FILE IDENTIFICATION RECORD ==================*
G04 Layout Name:  P1.brd*
G04 Film Name:    TOP*
G04 File Format:  Gerber RS274X*
G04 File Origin:  Cadence Allegro 17.2-S025*
G04 Origin Date:  Thu Dec 12 12:57:15 2024*
G04 *
G04 Layer:  ETCH/TOP*
G04 Layer:  PIN/TOP*
G04 Layer:  VIA CLASS/TOP*
G04 *
G04 Offset:    (0.00 0.00)*
G04 Mirror:    No*
G04 Mode:      Positive*
G04 Rotation:  0*
G04 FullContactRelief:  No*
G04 UndefLineWidth:     0.00*
G04 ================== end FILE IDENTIFICATION RECORD ====================*
%FSLAX25Y25*MOIN*%
%IR0*IPPOS*OFA0.00000B0.00000*MIA0B0*SFA1.00000B1.00000*%
%ADD13R,.1X.06*%
%ADD17R,.06X.1*%
%ADD12C,.034*%
%ADD11R,.05X.05*%
%ADD10C,.03937*%
%ADD16R,.036X.05*%
%ADD14R,.05X.036*%
%ADD15R,.048X.076*%
%ADD18R,.076X.048*%
%ADD19C,.016*%
%ADD20C,.018*%
%ADD21C,.07878*%
G75*
%LPD*%
G75*
G36*
G01X103901Y144999D02*
X103902Y145198D01*
X111287D01*
G03X112500Y144498I1213J701D01*
G01X117500D01*
G03X118902Y145900I0J1402D01*
G01Y150900D01*
G03X118545Y151834I-1402J-1D01*
G02X118843Y152500I299J266D01*
G01X152500D01*
Y5000D01*
X5000D01*
Y152500D01*
X58657D01*
G02X58955Y151834I-1J-400D01*
G03X58599Y150902I1045J-933D01*
G01Y150702D01*
X57647D01*
X56747Y149802D01*
X47302D01*
X47301Y150001D01*
G03X45900Y151402I-1401J0D01*
G01X40900D01*
G03X39498Y150000I0J-1402D01*
G01Y145000D01*
G03X40900Y143598I1402J0D01*
G01X45900D01*
G03X47301Y144999I0J1401D01*
G01X47302Y145198D01*
X58787D01*
G03X60000Y144498I1213J701D01*
G01X65000D01*
G03X66401Y145898I0J1401D01*
G01Y146098D01*
X78599D01*
Y145898D01*
G03X80000Y144498I1401J1D01*
G01X85000D01*
G03X86401Y145899I0J1401D01*
G01X86402Y146098D01*
X87247D01*
X87698Y145647D01*
Y140847D01*
X90198Y138347D01*
Y129580D01*
G03X94580Y125198I2302J-2080D01*
G01X131647D01*
X135147Y121698D01*
X136098D01*
Y121000D01*
G03X137500Y119598I1402J0D01*
G01X147500D01*
G03X148902Y121000I0J1402D01*
G01Y127000D01*
G03X147500Y128402I-1402J0D01*
G01X137500D01*
G03X136310Y127740I1J-1402D01*
G02X135687Y127668I-340J211D01*
G01X133553Y129802D01*
X94802D01*
Y136798D01*
X96098D01*
X96099Y136599D01*
G03X97500Y135198I1401J0D01*
G01X102500D01*
G03X103902Y136600I0J1402D01*
G01Y141600D01*
G03X102500Y143002I-1402J0D01*
G01X97500D01*
G03X96099Y141601I0J-1401D01*
G01X96098Y141402D01*
X93653D01*
X92302Y142753D01*
Y147553D01*
X89153Y150702D01*
X86401D01*
Y150902D01*
G03X86045Y151834I-1401J-1D01*
G02X86343Y152500I299J266D01*
G01X111157D01*
G02X111455Y151834I-1J-400D01*
G03X111099Y150902I1045J-933D01*
G01Y150702D01*
X110147D01*
X109247Y149802D01*
X103902D01*
X103901Y150001D01*
G03X102500Y151402I-1401J0D01*
G01X97500D01*
G03X96098Y150000I0J-1402D01*
G01Y145000D01*
G03X97500Y143598I1402J0D01*
G01X102500D01*
G03X103901Y144999I0J1401D01*
G37*
%LPC*%
G75*
G36*
G01X27302Y62500D02*
G02X25900Y61098I-1402J0D01*
G01X20900D01*
G02X19498Y62500I0J1402D01*
G01Y67500D01*
G02X20899Y68901I1401J0D01*
G03X21098Y69101I-1J200D01*
G01Y70647D01*
X20198Y71547D01*
Y78399D01*
G03X19999Y78599I-200J0D01*
G02X18598Y80000I0J1401D01*
G01Y85000D01*
G02X20000Y86402I1402J0D01*
G01X25000D01*
G02X26402Y85000I0J-1402D01*
G01Y80000D01*
G02X25001Y78599I-1401J0D01*
G03X24802Y78399I1J-200D01*
G01Y73453D01*
X25702Y72553D01*
Y69101D01*
G03X25901Y68901I200J0D01*
G02X27302Y67500I0J-1401D01*
G01Y62500D01*
G37*
G36*
G01X123198Y145100D02*
Y149900D01*
G02X123700Y150402I502J0D01*
G01X131300D01*
G02X131802Y149900I0J-502D01*
G01Y145100D01*
G02X131300Y144598I-502J0D01*
G01X123700D01*
G02X123198Y145100I0J502D01*
G37*
G36*
G01X136998Y108000D02*
Y114000D01*
G02X137500Y114502I502J0D01*
G01X147500D01*
G02X148002Y114000I0J-502D01*
G01Y108000D01*
G02X147500Y107498I-502J0D01*
G01X137500D01*
G02X136998Y108000I0J502D01*
G37*
G36*
G01Y73000D02*
Y79000D01*
G02X137500Y79502I502J0D01*
G01X147500D01*
G02X148002Y79000I0J-502D01*
G01Y73000D01*
G02X147500Y72498I-502J0D01*
G01X137500D01*
G02X136998Y73000I0J502D01*
G37*
G36*
G01X140498Y17500D02*
Y27500D01*
G02X141000Y28002I502J0D01*
G01X147000D01*
G02X147502Y27500I0J-502D01*
G01Y17500D01*
G02X147000Y16998I-502J0D01*
G01X141000D01*
G02X140498Y17500I0J502D01*
G37*
G36*
G01X101998Y102500D02*
Y107500D01*
G02X102500Y108002I502J0D01*
G01X107500D01*
G02X108002Y107500I0J-502D01*
G01Y102500D01*
G02X107500Y101998I-502J0D01*
G01X102500D01*
G02X101998Y102500I0J502D01*
G37*
G36*
G01X114498Y72500D02*
Y77500D01*
G02X115000Y78002I502J0D01*
G01X120000D01*
G02X120502Y77500I0J-502D01*
G01Y72500D01*
G02X120000Y71998I-502J0D01*
G01X115000D01*
G02X114498Y72500I0J502D01*
G37*
G36*
G01X54998Y16200D02*
Y23800D01*
G02X55500Y24302I502J0D01*
G01X60300D01*
G02X60802Y23800I0J-502D01*
G01Y16200D01*
G02X60300Y15698I-502J0D01*
G01X55500D01*
G02X54998Y16200I0J502D01*
G37*
G36*
G01X9498Y108000D02*
Y114000D01*
G02X10000Y114502I502J0D01*
G01X20000D01*
G02X20502Y114000I0J-502D01*
G01Y108000D01*
G02X20000Y107498I-502J0D01*
G01X10000D01*
G02X9498Y108000I0J502D01*
G37*
G36*
G01X16998Y92500D02*
Y97500D01*
G02X17500Y98002I502J0D01*
G01X22500D01*
G02X23002Y97500I0J-502D01*
G01Y92500D01*
G02X22500Y91998I-502J0D01*
G01X17500D01*
G02X16998Y92500I0J502D01*
G37*
G36*
G01X132702Y137200D02*
G02X131300Y135798I-1402J0D01*
G01X123700D01*
G02X122301Y137111I0J1402D01*
G01X122289Y137298D01*
X121347D01*
X120947Y137698D01*
X118902D01*
X118901Y137499D01*
G02X117500Y136098I-1401J0D01*
G01X112500D01*
G02X111098Y137500I0J1402D01*
G01Y142500D01*
G02X112500Y143902I1402J0D01*
G01X117500D01*
G02X118901Y142501I0J-1401D01*
G01X118902Y142302D01*
X122324D01*
X122369Y142439D01*
G02X123700Y143402I1331J-438D01*
G01X131300D01*
G02X132702Y142000I0J-1402D01*
G01Y137200D01*
G37*
G36*
G01X109801Y117499D02*
G02X108400Y116098I-1401J0D01*
G01X103400D01*
G02X101998Y117500I0J1402D01*
G01Y122500D01*
G02X103400Y123902I1402J0D01*
G01X108400D01*
G02X109801Y122501I0J-1401D01*
G01X109802Y122302D01*
X116098D01*
X116099Y122501D01*
G02X117500Y123902I1401J0D01*
G01X122500D01*
G02X123902Y122500I0J-1402D01*
G01Y117500D01*
G02X122500Y116098I-1402J0D01*
G01X117500D01*
G02X116099Y117499I0J1401D01*
G01X116098Y117698D01*
X109802D01*
X109801Y117499D01*
G37*
G36*
G01X100502Y102500D02*
G02X99100Y101098I-1402J0D01*
G01X94100D01*
G02X92698Y102500I0J1402D01*
G01Y107500D01*
G02X94099Y108901I1401J0D01*
G03X94298Y109101I-1J200D01*
G01Y109853D01*
X95198Y110753D01*
Y115899D01*
G03X94999Y116099I-200J0D01*
G02X93598Y117500I0J1401D01*
G01Y122500D01*
G02X95000Y123902I1402J0D01*
G01X100000D01*
G02X101402Y122500I0J-1402D01*
G01Y117500D01*
G02X100001Y116099I-1401J0D01*
G03X99802Y115899I1J-200D01*
G01Y108713D01*
G02X100502Y107500I-701J-1213D01*
G01Y102500D01*
G37*
G36*
G01X121401Y80899D02*
G02X120000Y79498I-1401J0D01*
G01X115000D01*
G02X113598Y80900I0J1402D01*
G01Y85900D01*
G02X115000Y87302I1402J0D01*
G01X120000D01*
G02X121401Y85901I0J-1401D01*
G01X121402Y85702D01*
X121847D01*
X123447Y87302D01*
X125198D01*
Y92499D01*
G03X124999Y92699I-200J0D01*
G02X123598Y94100I0J1401D01*
G01Y99100D01*
G02X125000Y100502I1402J0D01*
G01X130000D01*
G02X131402Y99100I0J-1402D01*
G01Y94100D01*
G02X130001Y92699I-1401J0D01*
G03X129802Y92499I1J-200D01*
G01Y87080D01*
G02X125420Y82698I-2302J-2080D01*
G01X125353D01*
X123753Y81098D01*
X121402D01*
X121401Y80899D01*
G37*
G36*
G01X33202Y78399D02*
Y75480D01*
G02X28598I-2302J-2080D01*
G01Y78399D01*
G03X28399Y78599I-200J0D01*
G02X26998Y80000I0J1401D01*
G01Y85000D01*
G02X28400Y86402I1402J0D01*
G01X33400D01*
G02X34802Y85000I0J-1402D01*
G01Y80000D01*
G02X33401Y78599I-1401J0D01*
G03X33202Y78399I1J-200D01*
G37*
G36*
G01X51401Y37499D02*
G02X50000Y36098I-1401J0D01*
G01X45000D01*
G02X43599Y37499I0J1401D01*
G01X43598Y37698D01*
X34580D01*
G02Y42302I-2080J2302D01*
G01X43598D01*
X43599Y42501D01*
G02X45000Y43902I1401J0D01*
G01X50000D01*
G02X51401Y42501I0J-1401D01*
G01X51402Y42302D01*
X56098D01*
X56099Y42501D01*
G02X57500Y43902I1401J0D01*
G01X62500D01*
G02X63901Y42501I0J-1401D01*
G01X63902Y42302D01*
X68598D01*
X68599Y42501D01*
G02X70000Y43902I1401J0D01*
G01X75000D01*
G02X76402Y42500I0J-1402D01*
G01Y37500D01*
G02X75000Y36098I-1402J0D01*
G01X70000D01*
G02X68599Y37499I0J1401D01*
G01X68598Y37698D01*
X63902D01*
X63901Y37499D01*
G02X62500Y36098I-1401J0D01*
G01X57500D01*
G02X56099Y37499I0J1401D01*
G01X56098Y37698D01*
X51402D01*
X51401Y37499D01*
G37*
G36*
G01X23002Y27500D02*
G02X21600Y26098I-1402J0D01*
G01X16600D01*
G02X15199Y27499I0J1401D01*
G01X15198Y27698D01*
X14047D01*
X10198Y31547D01*
Y38399D01*
G03X9999Y38599I-200J0D01*
G02X8598Y40000I0J1401D01*
G01Y45000D01*
G02X10000Y46402I1402J0D01*
G01X15000D01*
G02X16402Y45000I0J-1402D01*
G01Y40000D01*
G02X15001Y38599I-1401J0D01*
G03X14802Y38399I1J-200D01*
G01Y33453D01*
X14911Y33344D01*
G03X15506Y33376I283J282D01*
G02X16600Y33902I1094J-875D01*
G01X21600D01*
G02X23002Y32500I0J-1402D01*
G01Y27500D01*
G37*
G36*
G01X53802Y16200D02*
G02X52400Y14798I-1402J0D01*
G01X47600D01*
G02X46198Y16200I0J1402D01*
G01Y17698D01*
X41547D01*
X32002Y27244D01*
G03X31337Y27080I-283J-283D01*
G02X30000Y26098I-1337J419D01*
G01X25000D01*
G02X23598Y27500I0J1402D01*
G01Y32500D01*
G02X25000Y33902I1402J0D01*
G01X30000D01*
G02X31401Y32501I0J-1401D01*
G01X31402Y32302D01*
X33453D01*
X43453Y22302D01*
X46198D01*
Y23800D01*
G02X47600Y25202I1402J0D01*
G01X52400D01*
G02X53802Y23800I0J-1402D01*
G01Y16200D01*
G37*
G36*
G01X19153Y130198D02*
X13347D01*
X10198Y133347D01*
Y140399D01*
G03X9999Y140599I-200J0D01*
G02X8598Y142000I0J1401D01*
G01Y145600D01*
G02X10000Y147002I1402J0D01*
G01X15000D01*
G02X15932Y146646I-1J-1401D01*
G03X16598Y146945I266J299D01*
G01Y149500D01*
G02X18000Y150902I1402J0D01*
G01X23000D01*
G02X24260Y150114I0J-1401D01*
G01X24315Y150002D01*
X31087D01*
X31110Y150176D01*
G02X32500Y151402I1390J-175D01*
G01X37500D01*
G02X38902Y150000I0J-1402D01*
G01Y145000D01*
G02X37500Y143598I-1402J0D01*
G01X32500D01*
G02X31099Y144999I0J1401D01*
G01X31098Y145198D01*
X30147D01*
X29947Y145398D01*
X24315D01*
X24260Y145286D01*
G02X23000Y144498I-1260J613D01*
G01X18000D01*
G02X17068Y144854I1J1401D01*
G03X16402Y144555I-266J-299D01*
G01Y143145D01*
G03X17068Y142846I400J0D01*
G02X18000Y143202I933J-1045D01*
G01X23000D01*
G02X24260Y142414I0J-1401D01*
G01X24315Y142302D01*
X30953D01*
X32656Y140599D01*
X32730Y140593D01*
G02X29407Y137270I-230J-3093D01*
G01X29401Y137344D01*
X29047Y137698D01*
X24315D01*
X24260Y137586D01*
G02X23001Y136799I-1260J614D01*
G03X22802Y136599I1J-200D01*
G01Y133847D01*
X19153Y130198D01*
G37*
G36*
G01X51402Y29298D02*
X51401Y29099D01*
G02X50000Y27698I-1401J0D01*
G01X45000D01*
G02X43598Y29100I0J1402D01*
G01Y34100D01*
G02X45000Y35502I1402J0D01*
G01X50000D01*
G02X51401Y34101I0J-1401D01*
G01X51402Y33902D01*
X56098D01*
X56099Y34101D01*
G02X57500Y35502I1401J0D01*
G01X62500D01*
G02X63901Y34101I0J-1401D01*
G01X63902Y33902D01*
X68598D01*
X68599Y34101D01*
G02X70000Y35502I1401J0D01*
G01X75000D01*
G02X76402Y34100I0J-1402D01*
G01Y29100D01*
G02X75876Y28006I-1401J0D01*
G03X75844Y27411I250J-312D01*
G01X78453Y24802D01*
X84147D01*
X85882Y26537D01*
G02X85498Y27500I1018J964D01*
G01Y32500D01*
G02X85854Y33432I1401J-1D01*
G03X85555Y34098I-299J266D01*
G01X83000D01*
G02X81598Y35500I0J1402D01*
G01Y40500D01*
G02X82386Y41760I1401J0D01*
G01X82498Y41815D01*
Y43253D01*
X86202Y46957D01*
X86165Y47073D01*
G02X86099Y47499I1335J425D01*
G01X86098Y47698D01*
X38902D01*
X38901Y47499D01*
G02X37500Y46098I-1401J0D01*
G01X32500D01*
G02X31099Y47499I0J1401D01*
G01X31098Y47698D01*
X30147D01*
X29247Y48598D01*
X16402D01*
X16401Y48399D01*
G02X15000Y46998I-1401J0D01*
G01X10000D01*
G02X8598Y48400I0J1402D01*
G01Y53400D01*
G02X9999Y54801I1401J0D01*
G03X10198Y55001I-1J200D01*
G01Y59553D01*
X11549Y60904D01*
G03X11540Y61479I-282J283D01*
G02X11098Y62500I960J1022D01*
G01Y67500D01*
G02X12500Y68902I1402J0D01*
G01X17500D01*
G02X18902Y67500I0J-1402D01*
G01Y62500D01*
G02X17501Y61099I-1401J0D01*
G03X17302Y60899I1J-200D01*
G01Y60147D01*
X14802Y57647D01*
Y55001D01*
G03X15001Y54801I200J0D01*
G02X16401Y53401I-1J-1401D01*
G01X16402Y53202D01*
X31287D01*
G02X32500Y53902I1213J-701D01*
G01X37500D01*
G02X38901Y52501I0J-1401D01*
G01X38902Y52302D01*
X46058D01*
G03X46360Y52964I0J400D01*
G02X46398Y57080I2340J2037D01*
G01Y58685D01*
X46286Y58740D01*
G02X45498Y60000I613J1260D01*
G01Y65000D01*
G02X45854Y65932I1401J-1D01*
G03X45555Y66598I-299J266D01*
G01X43000D01*
G02X41599Y67999I0J1401D01*
G01X41598Y68198D01*
X38953D01*
X37302Y66547D01*
Y62501D01*
G03X37501Y62301I200J0D01*
G02X38902Y60900I0J-1401D01*
G01Y55900D01*
G02X37500Y54498I-1402J0D01*
G01X32500D01*
G02X31098Y55900I0J1402D01*
G01Y60900D01*
G02X32499Y62301I1401J0D01*
G03X32698Y62501I-1J200D01*
G01Y68453D01*
X37047Y72802D01*
X41598D01*
X41599Y73001D01*
G02X43000Y74402I1401J0D01*
G01X46600D01*
G02X48002Y73000I0J-1402D01*
G01Y68000D01*
G02X47646Y67068I-1401J1D01*
G03X47945Y66402I299J-266D01*
G01X49355D01*
G03X49654Y67068I0J400D01*
G02X49298Y68000I1045J933D01*
G01Y73000D01*
G02X50700Y74402I1402J0D01*
G01X54300D01*
G02X55701Y73001I0J-1401D01*
G01X55702Y72802D01*
X58847D01*
X60847Y74802D01*
X62698D01*
Y101653D01*
X65847Y104802D01*
X67998D01*
X67999Y105001D01*
G02X68354Y105932I1401J-1D01*
G03X68055Y106598I-299J266D01*
G01X65500D01*
G02X64099Y107999I0J1401D01*
G01X64098Y108198D01*
X59580D01*
G02X56168Y107698I-2080J2302D01*
G01X33347D01*
X31284Y109761D01*
G03X30602Y109478I-282J-283D01*
G01Y98902D01*
X30900D01*
G02X32041Y98314I0J-1401D01*
G03X32650Y98263I326J232D01*
G01X39088Y104702D01*
X40650D01*
X40701Y104826D01*
G02X42000Y105702I1299J-525D01*
G01X47000D01*
G02X48402Y104300I0J-1402D01*
G01Y101845D01*
G03X49068Y101546I400J0D01*
G02X50000Y101902I933J-1045D01*
G01X55000D01*
G02X56402Y100500I0J-1402D01*
G01Y96900D01*
G02X55001Y95499I-1401J0D01*
G03X54802Y95299I1J-200D01*
G01Y92080D01*
G02X50198I-2302J-2080D01*
G01Y95299D01*
G03X49999Y95499I-200J0D01*
G02X49068Y95854I1J1401D01*
G03X48402Y95555I-266J-299D01*
G01Y93000D01*
G02X47001Y91599I-1401J0D01*
G03X46802Y91399I1J-200D01*
G01Y90080D01*
G02X42198I-2302J-2080D01*
G01Y91399D01*
G03X41999Y91599I-200J0D01*
G02X40598Y93000I0J1401D01*
G01Y96600D01*
G02X42000Y98002I1402J0D01*
G01X47000D01*
G02X47932Y97646I-1J-1401D01*
G03X48598Y97945I266J299D01*
G01Y99355D01*
G03X47932Y99654I-400J0D01*
G02X47000Y99298I-933J1045D01*
G01X42000D01*
G02X40963Y99757I0J1401D01*
G03X40384Y99771I-296J-269D01*
G01X33412Y92798D01*
X32302D01*
Y92500D01*
G02X30900Y91098I-1402J0D01*
G01X25900D01*
G02X24498Y92500I0J1402D01*
G01Y97500D01*
G02X25900Y98902I1402J0D01*
G01X26198D01*
Y118188D01*
X22588Y121798D01*
X21402D01*
Y121000D01*
G02X20000Y119598I-1402J0D01*
G01X10000D01*
G02X8598Y121000I0J1402D01*
G01Y127000D01*
G02X10000Y128402I1402J0D01*
G01X20000D01*
G02X21402Y127000I0J-1402D01*
G01Y126202D01*
X24412D01*
X27916Y122698D01*
G03X28598Y122981I282J283D01*
G01Y125600D01*
G02X30000Y127002I1402J0D01*
G01X35000D01*
G02X35932Y126646I-1J-1401D01*
G03X36598Y126945I266J299D01*
G01Y129500D01*
G02X37999Y130901I1401J0D01*
G03X38198Y131101I-1J200D01*
G01Y136453D01*
X44047Y142302D01*
X58598D01*
X58599Y142501D01*
G02X60000Y143902I1401J0D01*
G01X65000D01*
G02X66402Y142500I0J-1402D01*
G01Y137500D01*
G02X65000Y136098I-1402J0D01*
G01X60000D01*
G02X58599Y137499I0J1401D01*
G01X58598Y137698D01*
X45953D01*
X42802Y134547D01*
Y131101D01*
G03X43001Y130901I200J0D01*
G02X44402Y129500I0J-1401D01*
G01Y125900D01*
G02X43000Y124498I-1402J0D01*
G01X38000D01*
G02X37068Y124854I1J1401D01*
G03X36402Y124555I-266J-299D01*
G01Y123145D01*
G03X37068Y122846I400J0D01*
G02X38000Y123202I933J-1045D01*
G01X43000D01*
G02X44260Y122414I0J-1401D01*
G01X44315Y122302D01*
X50516D01*
G03X50818Y122964I0J400D01*
G02X55238Y127302I2340J2037D01*
G01X58847D01*
X60147Y128602D01*
X61185D01*
X61240Y128714D01*
G02X62500Y129502I1260J-613D01*
G01X67500D01*
G02X68432Y129146I-1J-1401D01*
G03X69098Y129445I266J299D01*
G01Y132000D01*
G02X70499Y133401I1401J0D01*
G03X70698Y133601I-1J200D01*
G01Y136453D01*
X76547Y142302D01*
X78598D01*
X78599Y142501D01*
G02X80000Y143902I1401J0D01*
G01X85000D01*
G02X86402Y142500I0J-1402D01*
G01Y137500D01*
G02X85000Y136098I-1402J0D01*
G01X80000D01*
G02X78663Y137080I0J1401D01*
G03X77998Y137244I-382J-119D01*
G01X75302Y134547D01*
Y133601D01*
G03X75501Y133401I200J0D01*
G02X76902Y132000I0J-1401D01*
G01Y128400D01*
G02X75500Y126998I-1402J0D01*
G01X70500D01*
G02X69568Y127354I1J1401D01*
G03X68902Y127055I-266J-299D01*
G01Y125645D01*
G03X69568Y125346I400J0D01*
G02X70500Y125702I933J-1045D01*
G01X75500D01*
G02X76902Y124300I0J-1402D01*
G01Y120700D01*
G02X75501Y119299I-1401J0D01*
G03X75302Y119099I1J-200D01*
G01Y118347D01*
X72153Y115198D01*
X57080D01*
G02X51907Y117270I-2080J2302D01*
G01X51901Y117344D01*
X51547Y117698D01*
X44315D01*
X44260Y117586D01*
G02X43000Y116798I-1260J613D01*
G01X38000D01*
G02X36598Y118200I0J1402D01*
G01Y120655D01*
G03X35932Y120954I-400J0D01*
G02X35001Y120599I-932J1046D01*
G03X34802Y120399I1J-200D01*
G01Y112753D01*
X35253Y112302D01*
X54975D01*
G02X59580Y112802I2525J-1802D01*
G01X64098D01*
X64099Y113001D01*
G02X65500Y114402I1401J0D01*
G01X69100D01*
G02X70502Y113000I0J-1402D01*
G01Y108000D01*
G02X70146Y107068I-1401J1D01*
G03X70445Y106402I299J-266D01*
G01X71855D01*
G03X72154Y107068I0J400D01*
G02X71798Y108000I1045J933D01*
G01Y113000D01*
G02X73200Y114402I1402J0D01*
G01X76800D01*
G02X78201Y113001I0J-1401D01*
G01X78202Y112802D01*
X87920D01*
G02Y108198I2080J-2302D01*
G01X78202D01*
X78201Y107999D01*
G02X76800Y106598I-1401J0D01*
G01X74345D01*
G03X74046Y105932I0J-400D01*
G02X74402Y105000I-1045J-933D01*
G01Y100000D01*
G02X73000Y98598I-1402J0D01*
G01X69400D01*
G02X68045Y99641I0J1402D01*
G03X67376Y99821I-386J-103D01*
G01X67302Y99747D01*
Y74802D01*
X68098D01*
X68099Y75001D01*
G02X69500Y76402I1401J0D01*
G01X73100D01*
G02X74502Y75000I0J-1402D01*
G01Y70000D01*
G02X74146Y69068I-1401J1D01*
G03X74445Y68402I299J-266D01*
G01X77000D01*
G02X78402Y67000I0J-1402D01*
G01Y62000D01*
G02X78128Y61168I-1402J1D01*
G01X78025Y61029D01*
X78353Y60702D01*
X86098D01*
X86099Y60901D01*
G02X87500Y62302I1401J0D01*
G01X92500D01*
G02X93902Y60900I0J-1402D01*
G01Y55900D01*
G02X92500Y54498I-1402J0D01*
G01X87500D01*
G02X86099Y55899I0J1401D01*
G01X86098Y56098D01*
X76447D01*
X72898Y59647D01*
Y60685D01*
X72786Y60740D01*
G02X71998Y62000I613J1260D01*
G01Y67000D01*
G02X72354Y67932I1401J-1D01*
G03X72055Y68598I-299J266D01*
G01X70645D01*
G03X70346Y67932I0J-400D01*
G02X70702Y67000I-1045J-933D01*
G01Y62000D01*
G02X69300Y60598I-1402J0D01*
G01X65700D01*
G02X64299Y61999I0J1401D01*
G01X64298Y62198D01*
X60847D01*
X57698Y65347D01*
Y68198D01*
X55702D01*
X55701Y67999D01*
G02X54300Y66598I-1401J0D01*
G01X51845D01*
G03X51546Y65932I0J-400D01*
G02X51902Y65000I-1045J-933D01*
G01Y60000D01*
G02X51114Y58740I-1401J0D01*
G01X51002Y58685D01*
Y57080D01*
G02X51040Y52964I-2302J-2079D01*
G03X51342Y52302I302J-262D01*
G01X86098D01*
X86099Y52501D01*
G02X87500Y53902I1401J0D01*
G01X92500D01*
G02X93901Y52501I0J-1401D01*
G01X93902Y52302D01*
X97920D01*
G02Y47698I2080J-2302D01*
G01X93902D01*
X93901Y47499D01*
G02X92500Y46098I-1401J0D01*
G01X91853D01*
X87696Y41942D01*
G03X87673Y41402I283J-283D01*
G02X88002Y40500I-1072J-902D01*
G01Y35500D01*
G02X87646Y34568I-1401J1D01*
G03X87945Y33902I299J-266D01*
G01X89355D01*
G03X89654Y34568I0J400D01*
G02X89298Y35500I1045J933D01*
G01Y40500D01*
G02X90700Y41902I1402J0D01*
G01X94300D01*
G02X95321Y41460I-1J-1402D01*
G03X95896Y41451I292J273D01*
G01X96747Y42302D01*
X100420D01*
G02X104713Y42174I2080J-2302D01*
G03X105398Y42454I285J280D01*
G01Y61747D01*
X101096Y66049D01*
G03X100521Y66040I-283J-282D01*
G02X99500Y65598I-1022J960D01*
G01X95900D01*
G02X94498Y67000I0J1402D01*
G01Y72000D01*
G02X94854Y72932I1401J-1D01*
G03X94555Y73598I-299J266D01*
G01X93145D01*
G03X92846Y72932I0J-400D01*
G02X93202Y72000I-1045J-933D01*
G01Y67000D01*
G02X91800Y65598I-1402J0D01*
G01X88200D01*
G02X86799Y66999I0J1401D01*
G01X86798Y67198D01*
X85847D01*
X85484Y67561D01*
G03X84802Y67278I-282J-283D01*
G01Y67081D01*
X84850Y67025D01*
G02X80198Y67080I-2350J-2025D01*
G01Y78453D01*
X81745Y80000D01*
X80698Y81047D01*
Y84099D01*
G03X80499Y84299I-200J0D01*
G02X79098Y85700I0J1401D01*
G01Y88155D01*
G03X78432Y88454I-400J0D01*
G02X77501Y88099I-932J1046D01*
G03X77302Y87899I1J-200D01*
G01Y82080D01*
G02X72698I-2302J-2080D01*
G01Y87899D01*
G03X72499Y88099I-200J0D01*
G02X71098Y89500I0J1401D01*
G01Y93100D01*
G02X72500Y94502I1402J0D01*
G01X77500D01*
G02X78432Y94146I-1J-1401D01*
G03X79098Y94445I266J299D01*
G01Y97000D01*
G02X80500Y98402I1402J0D01*
G01X85500D01*
G02X86760Y97614I0J-1401D01*
G01X86815Y97502D01*
X90753D01*
X92411Y95844D01*
G03X93006Y95876I283J282D01*
G02X94100Y96402I1094J-875D01*
G01X99100D01*
G02X100502Y95000I0J-1402D01*
G01Y90000D01*
G02X99100Y88598I-1402J0D01*
G01X94100D01*
G02X92699Y89999I0J1401D01*
G01X92698Y90198D01*
X91547D01*
X88847Y92898D01*
X86815D01*
X86760Y92786D01*
G02X85500Y91998I-1260J613D01*
G01X80500D01*
G02X79568Y92354I1J1401D01*
G03X78902Y92055I-266J-299D01*
G01Y90645D01*
G03X79568Y90346I400J0D01*
G02X80500Y90702I933J-1045D01*
G01X85500D01*
G02X86902Y89300I0J-1402D01*
G01Y85700D01*
G02X85501Y84299I-1401J0D01*
G03X85302Y84099I1J-200D01*
G01Y82953D01*
X85953Y82302D01*
X87300D01*
G02X88927Y81627I-1J-2301D01*
G01X90082Y80473D01*
G03X90728Y80588I283J283D01*
G02X92000Y81402I1272J-587D01*
G01X95600D01*
G02X97002Y80000I0J-1402D01*
G01Y75000D01*
G02X96646Y74068I-1401J1D01*
G03X96945Y73402I299J-266D01*
G01X99500D01*
G02X100901Y72001I0J-1401D01*
G01X100902Y71802D01*
X101853D01*
X102016Y71639D01*
G03X102698Y71922I282J283D01*
G01Y88399D01*
G03X102499Y88599I-200J0D01*
G02X101098Y90000I0J1401D01*
G01Y95000D01*
G02X102500Y96402I1402J0D01*
G01X107500D01*
G02X108837Y95420I0J-1401D01*
G03X109502Y95256I382J119D01*
G01X121547Y107302D01*
X123598D01*
X123599Y107501D01*
G02X124999Y108901I1401J-1D01*
G03X125198Y109101I-1J200D01*
G01Y109853D01*
X126098Y110753D01*
Y115899D01*
G03X125899Y116099I-200J0D01*
G02X124498Y117500I0J1401D01*
G01Y122500D01*
G02X125900Y123902I1402J0D01*
G01X130900D01*
G02X132302Y122500I0J-1402D01*
G01Y117500D01*
G02X130901Y116099I-1401J0D01*
G03X130702Y115899I1J-200D01*
G01Y108713D01*
G02X131401Y107501I-702J-1213D01*
G01X131402Y107302D01*
X135953D01*
X144802Y98453D01*
Y93402D01*
X147500D01*
G02X148902Y92000I0J-1402D01*
G01Y86000D01*
G02X147500Y84598I-1402J0D01*
G01X137500D01*
G02X136098Y86000I0J1402D01*
G01Y92000D01*
G02X137500Y93402I1402J0D01*
G01X140198D01*
Y96547D01*
X134047Y102698D01*
X131402D01*
X131401Y102499D01*
G02X130000Y101098I-1401J0D01*
G01X125000D01*
G02X123663Y102080I0J1401D01*
G03X122998Y102244I-382J-119D01*
G01X110953Y90198D01*
X108902D01*
X108901Y89999D01*
G02X107501Y88599I-1401J1D01*
G03X107302Y88399I1J-200D01*
G01Y70953D01*
X108453Y69802D01*
X111653D01*
X114802Y66653D01*
Y65001D01*
G03X115001Y64801I200J0D01*
G02X116402Y63400I0J-1401D01*
G01Y58400D01*
G02X115000Y56998I-1402J0D01*
G01X110002D01*
Y56402D01*
X115000D01*
G02X116401Y55001I0J-1401D01*
G01X116402Y54802D01*
X133453D01*
X137353Y50902D01*
X138000D01*
G02X139402Y49500I0J-1402D01*
G01Y45900D01*
G02X138000Y44498I-1402J0D01*
G01X133000D01*
G02X132068Y44854I1J1401D01*
G03X131402Y44555I-266J-299D01*
G01Y43145D01*
G03X132068Y42846I400J0D01*
G02X133000Y43202I933J-1045D01*
G01X138000D01*
G02X139260Y42414I0J-1401D01*
G01X139315Y42302D01*
X140419D01*
X140475Y42350D01*
G02Y37650I2025J-2350D01*
G01X140419Y37698D01*
X139315D01*
X139260Y37586D01*
G02X138000Y36798I-1260J613D01*
G01X133000D01*
G02X131598Y38200I0J1402D01*
G01Y40655D01*
G03X130932Y40954I-400J0D01*
G02X130001Y40599I-932J1046D01*
G03X129802Y40399I1J-200D01*
G01Y33353D01*
X133302Y29853D01*
Y28902D01*
X134000D01*
G02X135402Y27500I0J-1402D01*
G01Y17500D01*
G02X134000Y16098I-1402J0D01*
G01X128000D01*
G02X126598Y17500I0J1402D01*
G01Y20198D01*
X121547D01*
X117344Y24401D01*
X117270Y24407D01*
G02X120593Y27730I230J3093D01*
G01X120599Y27656D01*
X123453Y24802D01*
X126598D01*
Y27500D01*
G02X127260Y28690I1402J-1D01*
G03X127332Y29313I-211J340D01*
G01X125198Y31447D01*
Y40399D01*
G03X124999Y40599I-200J0D01*
G02X123598Y42000I0J1401D01*
G01Y45600D01*
G02X125000Y47002I1402J0D01*
G01X130000D01*
G02X130932Y46646I-1J-1401D01*
G03X131598Y46945I266J299D01*
G01Y49500D01*
G02X131665Y49927I1402J-1D01*
G01X131702Y50043D01*
X131547Y50198D01*
X116402D01*
X116401Y49999D01*
G02X115000Y48598I-1401J0D01*
G01X110002D01*
Y35753D01*
X110302Y35453D01*
Y33601D01*
G03X110501Y33401I200J0D01*
G02X111902Y32000I0J-1401D01*
G01Y28400D01*
G02X110500Y26998I-1402J0D01*
G01X105500D01*
G02X104568Y27354I1J1401D01*
G03X103902Y27055I-266J-299D01*
G01Y25645D01*
G03X104568Y25346I400J0D01*
G02X105500Y25702I933J-1045D01*
G01X110500D01*
G02X111760Y24914I0J-1401D01*
G01X111815Y24802D01*
X113453D01*
X117302Y20953D01*
Y15953D01*
X118453Y14802D01*
X120420D01*
G02Y10198I2080J-2302D01*
G01X116547D01*
X112698Y14047D01*
Y19047D01*
X112046Y19699D01*
G03X111483Y19701I-283J-283D01*
G02X110501Y19299I-982J999D01*
G03X110302Y19099I1J-200D01*
G01Y18347D01*
X107153Y15198D01*
X101547D01*
X97698Y19047D01*
Y22899D01*
G03X97499Y23099I-200J0D01*
G02X96668Y23372I0J1401D01*
G01X96529Y23475D01*
X93253Y20198D01*
X76547D01*
X70198Y26547D01*
Y27499D01*
G03X69999Y27699I-200J0D01*
G02X68599Y29099I1J1401D01*
G01X68598Y29298D01*
X63902D01*
X63901Y29099D01*
G02X62500Y27698I-1401J0D01*
G01X57500D01*
G02X56099Y29099I0J1401D01*
G01X56098Y29298D01*
X51402D01*
G37*
G54D21*
X20000Y20000D03*
X137500Y137500D03*
%LPD*%
G75*
G36*
G01X87812Y73347D02*
G02X87302Y73731I-110J384D01*
G01Y75794D01*
X87776Y76269D01*
X88847Y75198D01*
X90598D01*
X90599Y74999D01*
G03X90954Y74068I1401J1D01*
G02X90655Y73402I-299J-266D01*
G01X88200D01*
G03X87812Y73347I1J-1402D01*
G37*
G54D10*
X20000Y20000D03*
X137500Y137500D03*
G54D20*
G01X50000Y20000D02*
X42500D01*
X32500Y30000D01*
X27500D01*
G01X12500Y42500D02*
Y32500D01*
X15000Y30000D01*
X19100D01*
G01X22500Y82500D02*
Y72500D01*
X23400Y71600D01*
Y65000D01*
G01X12500Y50900D02*
Y58600D01*
X15000Y61100D01*
Y65000D01*
G01X12500Y50900D02*
X30200D01*
X31100Y50000D01*
X35000D01*
G01X20000Y91798D02*
Y95000D01*
G01D02*
Y98202D01*
G01X16798Y95000D02*
X20000D01*
G01D02*
X23202D01*
G01X15000Y107298D02*
Y111000D01*
G01D02*
Y114702D01*
G01X9298Y111000D02*
X15000D01*
G01D02*
X20702D01*
G01X20500Y140000D02*
Y134800D01*
X18200Y132500D01*
X14300D01*
X12500Y134300D01*
Y143800D01*
G01X20500Y140000D02*
X30000D01*
X32500Y137500D01*
G01X20500Y147700D02*
X30900D01*
X31100Y147500D01*
X35000D01*
G01X32500Y40000D02*
X47500D01*
G01X60000D02*
X72500D01*
G01X47500D02*
X60000D01*
G01Y31600D02*
X72500D01*
G01X47500D02*
X60000D01*
G01X57900Y15498D02*
Y20000D01*
G01D02*
Y24502D01*
G01X54798Y20000D02*
X57900D01*
G01D02*
X61002D01*
G01X48700Y62500D02*
Y55000D01*
G01X35000Y58400D02*
Y67500D01*
X38000Y70500D01*
X44800D01*
G01X60000Y70700D02*
Y66300D01*
X61800Y64500D01*
X67500D01*
G01X52500Y70500D02*
X59800D01*
X60000Y70700D01*
G01X65000Y72500D02*
X61800D01*
X60000Y70700D01*
G01X35000Y50000D02*
X90000D01*
G01X30900Y82500D02*
Y73400D01*
G01X52500Y98700D02*
Y90000D01*
G01X44500Y94800D02*
Y88000D01*
G01X55000Y117500D02*
X52500Y120000D01*
X40500D01*
G01X55000Y117500D02*
X71200D01*
X73000Y119300D01*
Y122500D01*
G01X53158Y125000D02*
X59800D01*
X61100Y126300D01*
X65000D01*
G01X57500Y110500D02*
X67300D01*
G01X32500Y123800D02*
Y111800D01*
X34300Y110000D01*
X57000D01*
X57500Y110500D01*
G01X62500Y140000D02*
X45000D01*
X40500Y135500D01*
Y127700D01*
G01X43400Y147500D02*
X57700D01*
X58600Y148400D01*
X62500D01*
G01X88700Y30000D02*
Y26100D01*
X85100Y22500D01*
G01D02*
X77500D01*
X72500Y27500D01*
Y31600D01*
G01X85100Y22500D02*
X92300D01*
X96100Y26300D01*
X100000D01*
G01X90000Y50000D02*
Y47500D01*
X84800Y42300D01*
Y38000D01*
G01X90000Y58400D02*
X77400D01*
X75200Y60600D01*
Y64500D01*
G01X85000Y80000D02*
X82500Y77500D01*
Y65000D01*
G01X87300Y80000D02*
Y79047D01*
X85000Y76747D01*
Y71300D01*
X86800Y69500D01*
X90000D01*
G01Y50000D02*
X100000D01*
G01X83000Y87500D02*
Y82000D01*
X85000Y80000D01*
G01D02*
X87300D01*
G01D02*
X89800Y77500D01*
X93800D01*
G01X96600Y92500D02*
X92500D01*
X89800Y95200D01*
X83000D01*
G01X71300Y72500D02*
X65000D01*
G01X71200Y102500D02*
X66800D01*
X65000Y100700D01*
Y72500D01*
G01X75000Y91300D02*
Y80000D01*
G01X82500Y140000D02*
X77500D01*
X73000Y135500D01*
Y130200D01*
G01X75000Y110500D02*
X90000D01*
G01X62500Y148400D02*
X82500D01*
G01X92700Y139100D02*
X90000Y141800D01*
Y146600D01*
X88200Y148400D01*
X82500D01*
G01X102500Y40000D02*
X97700D01*
X95700Y38000D01*
X92500D01*
G01X108000Y30200D02*
Y34500D01*
X107700Y34800D01*
Y62700D01*
X100900Y69500D01*
X97700D01*
G01X108000Y22500D02*
X112500D01*
X115000Y20000D01*
Y15000D01*
X117500Y12500D01*
X122500D01*
G01X100000Y26300D02*
Y20000D01*
X102500Y17500D01*
X106200D01*
X108000Y19300D01*
Y22500D01*
G01X117500Y27500D02*
X122500Y22500D01*
X131000D01*
G01X112500Y52500D02*
X132500D01*
X135500Y49500D01*
Y47700D01*
G01X112500Y60900D02*
Y65700D01*
X110700Y67500D01*
X107500D01*
X105000Y70000D01*
Y92500D01*
G01X117500Y71798D02*
Y75000D01*
G01D02*
Y78202D01*
G01X114298Y75000D02*
X117500D01*
G01D02*
X120702D01*
G01X117500Y83400D02*
X122800D01*
X124400Y85000D01*
X127500D01*
G01X105000Y92500D02*
X110000D01*
X122500Y105000D01*
X127500D01*
G01X97500Y120000D02*
Y109800D01*
X96600Y108900D01*
Y105000D01*
G01X105900Y120000D02*
X120000D01*
G01X105000Y101798D02*
Y105000D01*
G01D02*
Y108202D01*
G01X101798Y105000D02*
X105000D01*
G01D02*
X108202D01*
G01X92500Y127500D02*
X132600D01*
X136100Y124000D01*
X142500D01*
G01X92500Y127500D02*
Y138900D01*
X92700Y139100D01*
G01X100000Y147500D02*
X110200D01*
X111100Y148400D01*
X115000D01*
G01Y140000D02*
X121900D01*
X122300Y139600D01*
X127500D01*
G01X100000Y139100D02*
X92700D01*
G01X135500Y40000D02*
X142500D01*
G01X144000Y16798D02*
Y22500D01*
G01D02*
Y28202D01*
G01X140298Y22500D02*
X144000D01*
G01D02*
X147702D01*
G01X127500Y43800D02*
Y32400D01*
X131000Y28900D01*
Y22500D01*
G01X142500Y72298D02*
Y76000D01*
G01D02*
Y79702D01*
G01X136798Y76000D02*
X142500D01*
G01D02*
X148202D01*
G01X127500Y85000D02*
Y96600D01*
G01Y105000D02*
X135000D01*
X142500Y97500D01*
Y89000D01*
G01Y107298D02*
Y111000D01*
G01D02*
Y114702D01*
G01X136798Y111000D02*
X142500D01*
G01D02*
X148202D01*
G01X128400Y120000D02*
Y109800D01*
X127500Y108900D01*
Y105000D01*
G01Y144398D02*
Y147500D01*
G01D02*
Y150602D01*
G01X122998Y147500D02*
X127500D01*
G01D02*
X132002D01*
G54D11*
X12500Y42500D03*
X27500Y30000D03*
X19100D03*
X12500Y50900D03*
X15000Y65000D03*
X23400D03*
X20000Y95000D03*
X28400D03*
X22500Y82500D03*
X30900D03*
X47500Y40000D03*
Y31600D03*
X60000Y40000D03*
Y31600D03*
X35000Y50000D03*
Y58400D03*
Y147500D03*
X43400D03*
X62500Y140000D03*
Y148400D03*
X72500Y40000D03*
Y31600D03*
X90000Y50000D03*
Y58400D03*
X82500Y140000D03*
Y148400D03*
X112500Y52500D03*
Y60900D03*
X105000Y92500D03*
X96600D03*
X117500Y75000D03*
Y83400D03*
X120000Y120000D03*
X97500D03*
X105900D03*
X105000Y105000D03*
X96600D03*
X100000Y147500D03*
Y139100D03*
X115000Y140000D03*
Y148400D03*
X127500Y96600D03*
X128400Y120000D03*
X127500Y105000D03*
G54D12*
X30900Y73400D03*
X32500Y40000D03*
X48700Y55000D03*
X52500Y90000D03*
X44500Y88000D03*
X55000Y117500D03*
X53158Y125000D03*
X57500Y110500D03*
X32500Y137500D03*
X82500Y65000D03*
X75000Y80000D03*
X90000Y110500D03*
X102500Y40000D03*
X117500Y27500D03*
X100000Y50000D03*
X92500Y127500D03*
X142500Y40000D03*
X122500Y12500D03*
X127500Y85000D03*
G54D13*
X15000Y124000D03*
Y111000D03*
X142500Y89000D03*
Y76000D03*
Y124000D03*
Y111000D03*
G54D14*
X32500Y123800D03*
X20500Y140000D03*
Y147700D03*
X12500Y143800D03*
X44500Y102500D03*
Y94800D03*
X52500Y98700D03*
X40500Y120000D03*
Y127700D03*
X83000Y87500D03*
Y95200D03*
X75000Y91300D03*
X73000Y122500D03*
Y130200D03*
X65000Y126300D03*
X108000Y22500D03*
Y30200D03*
X100000Y26300D03*
X135500Y40000D03*
Y47700D03*
X127500Y43800D03*
G54D15*
X50000Y20000D03*
X57900D03*
G54D16*
X52500Y70500D03*
X44800D03*
X48700Y62500D03*
X92500Y38000D03*
X84800D03*
X88700Y30000D03*
X90000Y69500D03*
X67500Y64500D03*
X75200D03*
X71300Y72500D03*
X71200Y102500D03*
X75000Y110500D03*
X67300D03*
X97700Y69500D03*
X93800Y77500D03*
G54D17*
X131000Y22500D03*
X144000D03*
G54D18*
X127500Y147500D03*
Y139600D03*
G54D19*
G01X28400Y95000D02*
Y119100D01*
X23500Y124000D01*
X15000D01*
G01X28400Y95000D02*
X32500D01*
X40000Y102500D01*
X44500D01*
M02*
